<svg width="266" height="36" viewBox="0 0 266 36" fill="none" xmlns="http://www.w3.org/2000/svg">
<path d="M17.832 17.384C20.04 17.8 21.832 18.616 23.208 19.832C24.616 21.048 25.32 22.872 25.32 25.304C25.32 28.856 24.04 31.368 21.48 32.84C18.952 34.28 15.4 35 10.824 35H0.12V1.736H9.528C14.2 1.736 17.768 2.408 20.232 3.752C22.696 5.064 23.928 7.224 23.928 10.232C23.928 12.184 23.336 13.768 22.152 14.984C21 16.168 19.56 16.968 17.832 17.384ZM7.992 7.304V15.032H10.92C14.248 15.032 15.912 13.688 15.912 11C15.912 9.656 15.464 8.712 14.568 8.168C13.672 7.592 12.248 7.304 10.296 7.304H7.992ZM10.872 29.288C12.952 29.288 14.52 28.984 15.576 28.376C16.664 27.736 17.208 26.568 17.208 24.872C17.208 21.8 15.288 20.264 11.448 20.264H7.992V29.288H10.872ZM43.425 8.792C44.353 8.792 45.201 8.904 45.969 9.128L44.769 16.472C43.809 16.248 43.041 16.136 42.465 16.136C40.961 16.136 39.809 16.664 39.009 17.72C38.241 18.744 37.633 20.296 37.185 22.376V35H29.601V9.512H36.225L36.849 14.456C37.425 12.696 38.289 11.32 39.441 10.328C40.625 9.304 41.953 8.792 43.425 8.792ZM70.3706 35H63.7946L63.4586 31.784C61.6026 34.472 59.0266 35.816 55.7306 35.816C53.3946 35.816 51.6186 35.112 50.4026 33.704C49.2186 32.296 48.6266 30.328 48.6266 27.8V9.512H56.2106V26.84C56.2106 28.088 56.4026 28.968 56.7866 29.48C57.2026 29.96 57.8266 30.2 58.6586 30.2C60.2586 30.2 61.6346 29.208 62.7866 27.224V9.512H70.3706V35ZM91.2634 8.696C93.4714 8.696 95.1994 9.368 96.4474 10.712C97.6954 12.056 98.3194 13.944 98.3194 16.376V35H90.7354V17.672C90.7354 16.392 90.5274 15.512 90.1114 15.032C89.7274 14.52 89.1354 14.264 88.3354 14.264C86.7994 14.264 85.3274 15.368 83.9194 17.576V35H76.3354V9.512H82.9594L83.4874 12.536C84.5754 11.256 85.7434 10.296 86.9914 9.656C88.2714 9.016 89.6954 8.696 91.2634 8.696ZM115.079 8.696C118.983 8.696 122.039 9.896 124.247 12.296C126.455 14.664 127.559 17.992 127.559 22.28C127.559 25 127.047 27.384 126.023 29.432C125.031 31.448 123.591 33.016 121.703 34.136C119.847 35.256 117.639 35.816 115.079 35.816C111.207 35.816 108.151 34.632 105.911 32.264C103.703 29.864 102.599 26.52 102.599 22.232C102.599 19.512 103.095 17.144 104.087 15.128C105.111 13.08 106.551 11.496 108.407 10.376C110.295 9.256 112.519 8.696 115.079 8.696ZM115.079 14.264C113.543 14.264 112.391 14.92 111.623 16.232C110.855 17.512 110.471 19.512 110.471 22.232C110.471 25.016 110.839 27.048 111.575 28.328C112.343 29.608 113.511 30.248 115.079 30.248C116.615 30.248 117.767 29.608 118.535 28.328C119.303 27.016 119.687 25 119.687 22.28C119.687 19.496 119.303 17.464 118.535 16.184C117.799 14.904 116.647 14.264 115.079 14.264ZM157.188 0.919998C159.268 0.919998 161.108 1.224 162.708 1.832C164.34 2.44 165.876 3.352 167.316 4.568L163.572 9.032C162.58 8.264 161.604 7.688 160.644 7.304C159.684 6.92 158.66 6.728 157.572 6.728C155.332 6.728 153.556 7.672 152.244 9.56C150.964 11.448 150.324 14.36 150.324 18.296C150.324 22.168 150.964 25.048 152.244 26.936C153.556 28.792 155.364 29.72 157.668 29.72C158.884 29.72 159.988 29.496 160.98 29.048C161.972 28.568 163.044 27.896 164.196 27.032L167.7 31.544C166.452 32.792 164.932 33.816 163.14 34.616C161.38 35.416 159.428 35.816 157.284 35.816C154.212 35.816 151.54 35.144 149.268 33.8C146.996 32.456 145.22 30.472 143.94 27.848C142.692 25.192 142.068 22.008 142.068 18.296C142.068 14.68 142.708 11.56 143.988 8.936C145.3 6.312 147.092 4.328 149.364 2.984C151.668 1.608 154.276 0.919998 157.188 0.919998ZM190.857 27.608C190.857 28.568 190.985 29.272 191.241 29.72C191.529 30.168 191.977 30.504 192.585 30.728L191.001 35.672C189.433 35.544 188.153 35.208 187.161 34.664C186.169 34.088 185.401 33.192 184.857 31.976C183.193 34.536 180.633 35.816 177.177 35.816C174.649 35.816 172.633 35.08 171.129 33.608C169.625 32.136 168.873 30.216 168.873 27.848C168.873 25.064 169.897 22.936 171.945 21.464C173.993 19.992 176.953 19.256 180.825 19.256H183.417V18.152C183.417 16.648 183.097 15.624 182.457 15.08C181.817 14.504 180.697 14.216 179.097 14.216C178.265 14.216 177.257 14.344 176.073 14.6C174.889 14.824 173.673 15.144 172.425 15.56L170.697 10.568C172.297 9.96 173.929 9.496 175.593 9.176C177.289 8.856 178.857 8.696 180.297 8.696C183.945 8.696 186.617 9.448 188.313 10.952C190.009 12.456 190.857 14.712 190.857 17.72V27.608ZM179.385 30.392C181.113 30.392 182.457 29.576 183.417 27.944V23.432H181.545C179.817 23.432 178.521 23.736 177.657 24.344C176.825 24.952 176.409 25.896 176.409 27.176C176.409 28.2 176.665 29 177.177 29.576C177.721 30.12 178.457 30.392 179.385 30.392ZM211.826 8.696C214.034 8.696 215.762 9.368 217.01 10.712C218.258 12.056 218.882 13.944 218.882 16.376V35H211.298V17.672C211.298 16.392 211.09 15.512 210.674 15.032C210.29 14.52 209.698 14.264 208.898 14.264C207.362 14.264 205.89 15.368 204.482 17.576V35H196.898V9.512H203.522L204.05 12.536C205.138 11.256 206.306 10.296 207.554 9.656C208.834 9.016 210.258 8.696 211.826 8.696ZM240.585 33.8C239.657 34.44 238.569 34.936 237.321 35.288C236.105 35.64 234.889 35.816 233.673 35.816C228.105 35.784 225.321 32.712 225.321 26.6V14.792H221.721V9.512H225.321V3.992L232.905 3.128V9.512H238.761L237.945 14.792H232.905V26.504C232.905 27.688 233.097 28.536 233.481 29.048C233.865 29.56 234.473 29.816 235.305 29.816C236.169 29.816 237.081 29.544 238.041 29L240.585 33.8ZM253.313 8.696C257.217 8.696 260.273 9.896 262.481 12.296C264.689 14.664 265.793 17.992 265.793 22.28C265.793 25 265.281 27.384 264.257 29.432C263.265 31.448 261.825 33.016 259.937 34.136C258.081 35.256 255.873 35.816 253.313 35.816C249.441 35.816 246.385 34.632 244.145 32.264C241.937 29.864 240.833 26.52 240.833 22.232C240.833 19.512 241.329 17.144 242.321 15.128C243.345 13.08 244.785 11.496 246.641 10.376C248.529 9.256 250.753 8.696 253.313 8.696ZM253.313 14.264C251.777 14.264 250.625 14.92 249.857 16.232C249.089 17.512 248.705 19.512 248.705 22.232C248.705 25.016 249.073 27.048 249.809 28.328C250.577 29.608 251.745 30.248 253.313 30.248C254.849 30.248 256.001 29.608 256.769 28.328C257.537 27.016 257.921 25 257.921 22.28C257.921 19.496 257.537 17.464 256.769 16.184C256.033 14.904 254.881 14.264 253.313 14.264Z" fill="#1E1E1E"/>
</svg>
