<svg width="36" height="33" viewBox="0 0 36 33" fill="none" xmlns="http://www.w3.org/2000/svg">
<path d="M27.0589 0.375C23.9202 0.375 20.5399 1.154 18.206 3.29624C15.872 1.154 12.4918 0.375 9.35298 0.375C7.01901 0.375 4.54018 0.803448 2.46375 1.91352C1.28872 2.55619 0.5 3.93891 0.5 5.51638V27.4841C0.5 30.0158 2.46375 31.8854 4.49189 31.2622C6.06933 30.7753 7.74335 30.5611 9.35298 30.5611C11.864 30.5611 14.536 31.0675 16.6929 32.3528C17.6587 32.9371 18.7532 32.9371 19.7029 32.3528C21.8598 31.048 24.5318 30.5611 27.0428 30.5611C28.6525 30.5611 30.3265 30.7753 31.9039 31.2622C33.9321 31.9049 35.8958 30.0353 35.8958 27.4841V5.51638C35.8958 3.93891 35.1071 2.55619 33.9321 1.91352C31.8717 0.803448 29.3929 0.375 27.0589 0.375ZM32.6927 25.1666C32.6927 26.3935 31.7591 27.2893 30.7611 27.0751C29.5539 26.8025 28.2984 26.6856 27.0589 26.6856C24.3226 26.6856 20.379 27.9515 18.206 29.6069V7.19122C20.379 5.53585 24.3226 4.26998 27.0589 4.26998C28.5398 4.26998 30.0046 4.44526 31.405 4.81528C32.1454 5.01003 32.6927 5.8085 32.6927 6.72382V25.1666Z" fill="url(#paint0_linear_23_41)"/>
<path d="M21.3931 13.0531C20.878 13.0531 20.4112 12.6636 20.2502 12.0404C20.041 11.2809 20.3951 10.4435 21.0229 10.2098C23.5017 9.23603 26.7049 8.92443 29.6505 9.33341C30.3104 9.43078 30.7933 10.1514 30.7129 10.9498C30.6324 11.7483 30.0368 12.3325 29.3769 12.2352C26.7693 11.8651 23.9202 12.1573 21.7633 12.9947C21.6345 13.0142 21.5057 13.0531 21.3931 13.0531Z" fill="url(#paint1_linear_23_41)"/>
<path d="M21.3931 18.2335C20.878 18.2335 20.4112 17.844 20.2502 17.2208C20.041 16.4613 20.3951 15.6239 21.0229 15.3902C23.4856 14.4165 26.7049 14.1049 29.6505 14.5138C30.3104 14.6112 30.7933 15.3318 30.7129 16.1302C30.6324 16.9287 30.0368 17.513 29.3769 17.4156C26.7693 17.0456 23.9202 17.3377 21.7633 18.1751C21.6345 18.2141 21.5057 18.2335 21.3931 18.2335Z" fill="url(#paint2_linear_23_41)"/>
<path d="M21.3931 23.4138C20.878 23.4138 20.4112 23.0243 20.2502 22.4011C20.041 21.6416 20.3951 20.8042 21.0229 20.5705C23.4856 19.5968 26.7049 19.2852 29.6505 19.6941C30.3104 19.7915 30.7933 20.5121 30.7129 21.3105C30.6324 22.109 30.0368 22.6738 29.3769 22.5959C26.7693 22.2259 23.9202 22.518 21.7633 23.3554C21.6345 23.3944 21.5057 23.4138 21.3931 23.4138Z" fill="url(#paint3_linear_23_41)"/>
<defs>
<linearGradient id="paint0_linear_23_41" x1="18.1979" y1="0.375" x2="18.1979" y2="32.791" gradientUnits="userSpaceOnUse">
<stop stop-color="#1C96DA"/>
<stop offset="0.526042" stop-color="#50BDFA"/>
<stop offset="1" stop-color="#50BDFA"/>
</linearGradient>
<linearGradient id="paint1_linear_23_41" x1="25.4558" y1="9.15796" x2="25.4558" y2="13.0531" gradientUnits="userSpaceOnUse">
<stop stop-color="#1C96DA"/>
<stop offset="0.526042" stop-color="#50BDFA"/>
<stop offset="1" stop-color="#50BDFA"/>
</linearGradient>
<linearGradient id="paint2_linear_23_41" x1="25.4558" y1="14.3384" x2="25.4558" y2="18.2335" gradientUnits="userSpaceOnUse">
<stop stop-color="#1C96DA"/>
<stop offset="0.526042" stop-color="#50BDFA"/>
<stop offset="1" stop-color="#50BDFA"/>
</linearGradient>
<linearGradient id="paint3_linear_23_41" x1="25.4558" y1="19.5187" x2="25.4558" y2="23.4138" gradientUnits="userSpaceOnUse">
<stop stop-color="#1C96DA"/>
<stop offset="0.526042" stop-color="#50BDFA"/>
<stop offset="1" stop-color="#50BDFA"/>
</linearGradient>
</defs>
</svg>
