<svg width="50" height="50" viewBox="0 0 50 50" fill="none" xmlns="http://www.w3.org/2000/svg">
<rect x="0.5" y="0.5" width="49" height="49" stroke="#292929"/>
<path d="M39.0589 9.375C35.9202 9.375 32.5399 10.154 30.206 12.2962C27.872 10.154 24.4918 9.375 21.353 9.375C19.019 9.375 16.5402 9.80345 14.4638 10.9135C13.2887 11.5562 12.5 12.9389 12.5 14.5164V36.4841C12.5 39.0158 14.4638 40.8854 16.4919 40.2622C18.0693 39.7753 19.7433 39.5611 21.353 39.5611C23.864 39.5611 26.536 40.0675 28.6929 41.3528C29.6587 41.9371 30.7532 41.9371 31.7029 41.3528C33.8598 40.048 36.5318 39.5611 39.0428 39.5611C40.6525 39.5611 42.3265 39.7753 43.9039 40.2622C45.9321 40.9049 47.8958 39.0353 47.8958 36.4841V14.5164C47.8958 12.9389 47.1071 11.5562 45.9321 10.9135C43.8717 9.80345 41.3929 9.375 39.0589 9.375ZM44.6927 34.1666C44.6927 35.3935 43.7591 36.2893 42.7611 36.0751C41.5539 35.8025 40.2984 35.6856 39.0589 35.6856C36.3226 35.6856 32.379 36.9515 30.206 38.6069V16.1912C32.379 14.5359 36.3226 13.27 39.0589 13.27C40.5398 13.27 42.0046 13.4453 43.405 13.8153C44.1454 14.01 44.6927 14.8085 44.6927 15.7238V34.1666Z" fill="url(#paint0_linear_23_37)"/>
<path d="M33.3931 22.0531C32.878 22.0531 32.4112 21.6636 32.2502 21.0404C32.041 20.2809 32.3951 19.4435 33.0229 19.2098C35.5017 18.236 38.7049 17.9244 41.6505 18.3334C42.3104 18.4308 42.7933 19.1514 42.7129 19.9498C42.6324 20.7483 42.0368 21.3325 41.3769 21.2352C38.7693 20.8651 35.9202 21.1573 33.7633 21.9947C33.6345 22.0142 33.5057 22.0531 33.3931 22.0531Z" fill="url(#paint1_linear_23_37)"/>
<path d="M33.3931 27.2335C32.878 27.2335 32.4112 26.844 32.2502 26.2208C32.041 25.4613 32.3951 24.6239 33.0229 24.3902C35.4856 23.4165 38.7049 23.1049 41.6505 23.5138C42.3104 23.6112 42.7933 24.3318 42.7129 25.1302C42.6324 25.9287 42.0368 26.513 41.3769 26.4156C38.7693 26.0456 35.9202 26.3377 33.7633 27.1751C33.6345 27.2141 33.5057 27.2335 33.3931 27.2335Z" fill="url(#paint2_linear_23_37)"/>
<path d="M33.3931 32.4138C32.878 32.4138 32.4112 32.0243 32.2502 31.4011C32.041 30.6416 32.3951 29.8042 33.0229 29.5705C35.4856 28.5968 38.7049 28.2852 41.6505 28.6941C42.3104 28.7915 42.7933 29.5121 42.7129 30.3105C42.6324 31.109 42.0368 31.6738 41.3769 31.5959C38.7693 31.2259 35.9202 31.518 33.7633 32.3554C33.6345 32.3944 33.5057 32.4138 33.3931 32.4138Z" fill="url(#paint3_linear_23_37)"/>
<defs>
<linearGradient id="paint0_linear_23_37" x1="30.1979" y1="9.375" x2="30.1979" y2="41.791" gradientUnits="userSpaceOnUse">
<stop stop-color="#1C96DA"/>
<stop offset="0.526042" stop-color="#50BDFA"/>
<stop offset="1" stop-color="#50BDFA"/>
</linearGradient>
<linearGradient id="paint1_linear_23_37" x1="37.4558" y1="18.158" x2="37.4558" y2="22.0531" gradientUnits="userSpaceOnUse">
<stop stop-color="#1C96DA"/>
<stop offset="0.526042" stop-color="#50BDFA"/>
<stop offset="1" stop-color="#50BDFA"/>
</linearGradient>
<linearGradient id="paint2_linear_23_37" x1="37.4558" y1="23.3384" x2="37.4558" y2="27.2335" gradientUnits="userSpaceOnUse">
<stop stop-color="#1C96DA"/>
<stop offset="0.526042" stop-color="#50BDFA"/>
<stop offset="1" stop-color="#50BDFA"/>
</linearGradient>
<linearGradient id="paint3_linear_23_37" x1="37.4558" y1="28.5187" x2="37.4558" y2="32.4138" gradientUnits="userSpaceOnUse">
<stop stop-color="#1C96DA"/>
<stop offset="0.526042" stop-color="#50BDFA"/>
<stop offset="1" stop-color="#50BDFA"/>
</linearGradient>
</defs>
</svg>
