<svg width="46" height="42" viewBox="0 0 46 42" fill="none" xmlns="http://www.w3.org/2000/svg">
<path d="M24.3542 28.6458C24.6459 27.8958 24.4584 27.0416 23.875 26.4583L19.5209 22.1666L19.5834 22.1041C23.2084 18.0625 25.7917 13.4166 27.3125 8.49996H31.3542C32.4792 8.49996 33.4167 7.56246 33.4167 6.43746V6.39579C33.4167 5.27079 32.4792 4.33329 31.3542 4.33329H18.8334V2.24996C18.8334 1.10413 17.8959 0.166626 16.75 0.166626C15.6042 0.166626 14.6667 1.10413 14.6667 2.24996V4.33329H2.14587C1.02087 4.33329 0.083374 5.27079 0.083374 6.39579C0.083374 7.54163 1.02087 8.45829 2.14587 8.45829H23.3542C21.9584 12.5 19.75 16.3125 16.75 19.6458C15.0625 17.7916 13.6459 15.7708 12.4584 13.6458C12.125 13.0416 11.5209 12.6666 10.8334 12.6666C9.39587 12.6666 8.47921 14.2291 9.18754 15.4791C10.5 17.8333 12.1042 20.0833 13.9792 22.1666L4.87504 31.1458C4.04171 31.9583 4.04171 33.2916 4.87504 34.1041C5.68754 34.9166 7.00004 34.9166 7.83337 34.1041L16.75 25.1666L20.9584 29.375C22.0209 30.4375 23.8334 30.0416 24.3542 28.6458ZM34.4584 16.8333C33.2084 16.8333 32.0834 17.6041 31.6459 18.7916L24 39.2083C23.5 40.4791 24.4584 41.8333 25.8125 41.8333C26.625 41.8333 27.3542 41.3333 27.6459 40.5625L29.5 35.5833H39.3959L41.2709 40.5625C41.5625 41.3125 42.2917 41.8333 43.1042 41.8333C44.4584 41.8333 45.4167 40.4791 44.9375 39.2083L37.2917 18.7916C36.8334 17.6041 35.7084 16.8333 34.4584 16.8333ZM31.0834 31.4166L34.4584 22.3958L37.8334 31.4166H31.0834Z" fill="url(#paint0_linear_23_55)"/>
<defs>
<linearGradient id="paint0_linear_23_55" x1="22.573" y1="0.166626" x2="22.573" y2="41.8333" gradientUnits="userSpaceOnUse">
<stop stop-color="#1C96DA"/>
<stop offset="1" stop-color="#50BDFA"/>
</linearGradient>
</defs>
</svg>
