<svg width="50" height="50" viewBox="0 0 50 50" fill="none" xmlns="http://www.w3.org/2000/svg">
<g clip-path="url(#clip0_23_53)">
<path d="M26.3542 32.6458C26.6459 31.8958 26.4584 31.0416 25.875 30.4583L21.5209 26.1666L21.5834 26.1041C25.2084 22.0625 27.7917 17.4166 29.3125 12.5H33.3542C34.4792 12.5 35.4167 11.5625 35.4167 10.4375V10.3958C35.4167 9.27079 34.4792 8.33329 33.3542 8.33329H20.8334V6.24996C20.8334 5.10413 19.8959 4.16663 18.75 4.16663C17.6042 4.16663 16.6667 5.10413 16.6667 6.24996V8.33329H4.14587C3.02087 8.33329 2.08337 9.27079 2.08337 10.3958C2.08337 11.5416 3.02087 12.4583 4.14587 12.4583H25.3542C23.9584 16.5 21.75 20.3125 18.75 23.6458C17.0625 21.7916 15.6459 19.7708 14.4584 17.6458C14.125 17.0416 13.5209 16.6666 12.8334 16.6666C11.3959 16.6666 10.4792 18.2291 11.1875 19.4791C12.5 21.8333 14.1042 24.0833 15.9792 26.1666L6.87504 35.1458C6.04171 35.9583 6.04171 37.2916 6.87504 38.1041C7.68754 38.9166 9.00004 38.9166 9.83337 38.1041L18.75 29.1666L22.9584 33.375C24.0209 34.4375 25.8334 34.0416 26.3542 32.6458ZM36.4584 20.8333C35.2084 20.8333 34.0834 21.6041 33.6459 22.7916L26 43.2083C25.5 44.4791 26.4584 45.8333 27.8125 45.8333C28.625 45.8333 29.3542 45.3333 29.6459 44.5625L31.5 39.5833H41.3959L43.2709 44.5625C43.5625 45.3125 44.2917 45.8333 45.1042 45.8333C46.4584 45.8333 47.4167 44.4791 46.9375 43.2083L39.2917 22.7916C38.8334 21.6041 37.7084 20.8333 36.4584 20.8333ZM33.0834 35.4166L36.4584 26.3958L39.8334 35.4166H33.0834Z" fill="url(#paint0_linear_23_53)"/>
</g>
<rect x="0.5" y="0.5" width="49" height="49" stroke="#292929"/>
<defs>
<linearGradient id="paint0_linear_23_53" x1="24.573" y1="4.16663" x2="24.573" y2="45.8333" gradientUnits="userSpaceOnUse">
<stop stop-color="#1C96DA"/>
<stop offset="1" stop-color="#50BDFA"/>
</linearGradient>
<clipPath id="clip0_23_53">
<rect width="50" height="50" fill="white"/>
</clipPath>
</defs>
</svg>
